<svg width="242" height="54" viewBox="0 0 242 54" fill="none" xmlns="http://www.w3.org/2000/svg">
<g filter="url(#filter0_d)">
<path d="M22.224 48.512C18.6827 48.512 15.44 48.0427 12.496 47.104C9.59467 46.1653 7.07733 44.7573 4.944 42.88L7.312 38.016C9.53067 39.808 11.8347 41.1093 14.224 41.92C16.6133 42.7307 19.3013 43.136 22.288 43.136C25.7013 43.136 28.3467 42.496 30.224 41.216C32.1013 39.936 33.04 38.1227 33.04 35.776C33.04 33.8133 32.1653 32.3413 30.416 31.36C28.6667 30.336 25.8933 29.3973 22.096 28.544C18.4693 27.776 15.504 26.9013 13.2 25.92C10.896 24.896 9.08267 23.552 7.76 21.888C6.43733 20.1813 5.776 18.0053 5.776 15.36C5.776 12.7147 6.48 10.3893 7.888 8.384C9.296 6.336 11.28 4.75733 13.84 3.648C16.4427 2.496 19.4293 1.92 22.8 1.92C26 1.92 28.9867 2.41066 31.76 3.392C34.576 4.37333 36.9227 5.76 38.8 7.552L36.432 12.416C34.3413 10.6667 32.1867 9.38667 29.968 8.576C27.7493 7.72266 25.3813 7.296 22.864 7.296C19.5787 7.296 16.9973 8 15.12 9.408C13.2427 10.7733 12.304 12.6507 12.304 15.04C12.304 17.088 13.1147 18.6453 14.736 19.712C16.4 20.7787 19.0453 21.7387 22.672 22.592C26.4693 23.4453 29.5413 24.3413 31.888 25.28C34.2347 26.2187 36.112 27.4987 37.52 29.12C38.928 30.7413 39.632 32.832 39.632 35.392C39.632 38.0373 38.928 40.3413 37.52 42.304C36.112 44.2667 34.0853 45.8027 31.44 46.912C28.8373 47.9787 25.7653 48.512 22.224 48.512ZM55.3075 20.736V36.928C55.3075 39.1467 55.7768 40.7253 56.7155 41.664C57.6968 42.56 59.0408 43.008 60.7475 43.008C61.8568 43.008 62.9875 42.8373 64.1395 42.496V47.744C62.7315 48.2133 61.1315 48.448 59.3395 48.448C56.0115 48.448 53.4302 47.5093 51.5955 45.632C49.7608 43.7547 48.8435 41.024 48.8435 37.44V20.736H42.5715V15.744H48.8435V7.68L55.3075 5.44V15.744H64.2035V20.736H55.3075ZM86.2375 14.976C87.2188 14.976 88.2428 15.1253 89.3095 15.424L89.1815 21.312C88.0295 20.8853 86.7708 20.672 85.4055 20.672C82.4615 20.672 80.2428 21.568 78.7495 23.36C77.2988 25.1093 76.5735 27.328 76.5735 30.016V48H70.1735V24.832C70.1735 21.4613 70.0028 18.432 69.6615 15.744H75.6775L76.2535 21.568C77.1068 19.4347 78.4295 17.8133 80.2215 16.704C82.0135 15.552 84.0188 14.976 86.2375 14.976ZM123.115 15.744V48H116.715V42.496C115.776 44.416 114.368 45.888 112.491 46.912C110.656 47.936 108.502 48.448 106.027 48.448C103.168 48.448 100.651 47.7653 98.475 46.4C96.3417 45.0347 94.6777 43.1147 93.483 40.64C92.2883 38.1227 91.691 35.2 91.691 31.872C91.691 28.544 92.2883 25.6 93.483 23.04C94.7203 20.48 96.427 18.496 98.603 17.088C100.779 15.68 103.254 14.976 106.027 14.976C108.502 14.976 110.656 15.5093 112.491 16.576C114.326 17.6 115.734 19.072 116.715 20.992V15.744H123.115ZM107.563 43.328C110.464 43.328 112.704 42.3253 114.283 40.32C115.904 38.272 116.715 35.4133 116.715 31.744C116.715 28.032 115.904 25.1733 114.283 23.168C112.704 21.1627 110.443 20.16 107.499 20.16C104.598 20.16 102.315 21.2053 100.651 23.296C99.0297 25.344 98.219 28.2027 98.219 31.872C98.219 35.4987 99.0297 38.3147 100.651 40.32C102.315 42.3253 104.619 43.328 107.563 43.328ZM140.995 20.736V36.928C140.995 39.1467 141.464 40.7253 142.403 41.664C143.384 42.56 144.728 43.008 146.435 43.008C147.544 43.008 148.675 42.8373 149.827 42.496V47.744C148.419 48.2133 146.819 48.448 145.027 48.448C141.699 48.448 139.118 47.5093 137.283 45.632C135.448 43.7547 134.531 41.024 134.531 37.44V20.736H128.259V15.744H134.531V7.68L140.995 5.44V15.744H149.891V20.736H140.995Z" fill="#2E2E2E"/>
<path d="M157.461 48V20.224H151.957V16H157.461V13.184C157.461 9.68533 158.506 7.06133 160.597 5.312C162.73 3.56267 165.632 2.688 169.301 2.688H169.685V7.232H169.045C166.826 7.232 165.141 7.744 163.989 8.768C162.837 9.74933 162.261 11.3493 162.261 13.568V16H169.685V20.224H162.261V48H157.461ZM188.173 48.512C184.93 48.512 182.114 47.7867 179.725 46.336C177.336 44.8427 175.501 42.8373 174.221 40.32C172.941 37.8027 172.301 35.0293 172.301 32C172.301 28.928 172.941 26.1547 174.221 23.68C175.501 21.1627 177.336 19.1787 179.725 17.728C182.114 16.2347 184.93 15.488 188.173 15.488C191.458 15.488 194.274 16.2347 196.621 17.728C199.01 19.1787 200.845 21.1627 202.125 23.68C203.405 26.1547 204.045 28.928 204.045 32C204.045 35.0293 203.405 37.8027 202.125 40.32C200.845 42.8373 199.01 44.8427 196.621 46.336C194.274 47.7867 191.458 48.512 188.173 48.512ZM188.173 44.16C190.562 44.16 192.568 43.6053 194.189 42.496C195.853 41.3867 197.112 39.9147 197.965 38.08C198.818 36.2027 199.245 34.176 199.245 32C199.245 29.7813 198.818 27.7547 197.965 25.92C197.112 24.0853 195.853 22.6133 194.189 21.504C192.568 20.3947 190.562 19.84 188.173 19.84C185.826 19.84 183.821 20.3947 182.157 21.504C180.493 22.6133 179.234 24.0853 178.381 25.92C177.528 27.7547 177.101 29.7813 177.101 32C177.101 34.176 177.528 36.2027 178.381 38.08C179.234 39.9147 180.493 41.3867 182.157 42.496C183.821 43.6053 185.826 44.16 188.173 44.16ZM224.17 48.512C220.97 48.512 218.197 47.7867 215.85 46.336C213.503 44.8427 211.669 42.8373 210.346 40.32C209.066 37.8027 208.426 35.0293 208.426 32C208.426 28.928 209.066 26.1547 210.346 23.68C211.669 21.1627 213.503 19.1787 215.85 17.728C218.197 16.2347 220.97 15.488 224.17 15.488C227.967 15.488 231.189 16.4693 233.834 18.432C236.522 20.3947 238.335 22.9333 239.274 26.048H234.09C233.365 24.2133 232.191 22.72 230.57 21.568C228.991 20.416 227.071 19.84 224.81 19.84C222.463 19.84 220.415 20.3947 218.666 21.504C216.917 22.6133 215.573 24.0853 214.634 25.92C213.695 27.7547 213.226 29.7813 213.226 32C213.226 34.176 213.695 36.2027 214.634 38.08C215.573 39.9147 216.917 41.3867 218.666 42.496C220.415 43.6053 222.463 44.16 224.81 44.16C227.071 44.16 228.991 43.584 230.57 42.432C232.191 41.28 233.365 39.7867 234.09 37.952H239.274C238.335 41.0667 236.522 43.6053 233.834 45.568C231.189 47.5307 227.967 48.512 224.17 48.512Z" fill="#C912C1"/>
</g>
<defs>
<filter id="filter0_d" x="0.944" y="0.919983" width="240.33" height="52.592" filterUnits="userSpaceOnUse" color-interpolation-filters="sRGB">
<feFlood flood-opacity="0" result="BackgroundImageFix"/>
<feColorMatrix in="SourceAlpha" type="matrix" values="0 0 0 0 0 0 0 0 0 0 0 0 0 0 0 0 0 0 127 0" result="hardAlpha"/>
<feOffset dx="-1" dy="2"/>
<feGaussianBlur stdDeviation="1.5"/>
<feComposite in2="hardAlpha" operator="out"/>
<feColorMatrix type="matrix" values="0 0 0 0 0 0 0 0 0 0 0 0 0 0 0 0 0 0 0.5 0"/>
<feBlend mode="normal" in2="BackgroundImageFix" result="effect1_dropShadow"/>
<feBlend mode="normal" in="SourceGraphic" in2="effect1_dropShadow" result="shape"/>
</filter>
</defs>
</svg>
